<svg width="57" height="52" viewBox="0 0 57 52" fill="none" xmlns="http://www.w3.org/2000/svg">
<path fill-rule="evenodd" clip-rule="evenodd" d="M0 26C0 11.6402 12.7594 0 28.5 0C44.2405 0 57 11.6402 57 26C57 40.3598 44.2405 52 28.5 52C12.7594 52 0 40.3598 0 26ZM26.8128 11.7C26.0569 11.7 25.332 11.9739 24.7975 12.4615C24.2631 12.9491 23.9628 13.6104 23.9628 14.3C23.9628 14.9896 24.2631 15.6509 24.7975 16.1385C25.332 16.6261 26.0569 16.9 26.8128 16.9H26.8413C27.5972 16.9 28.3221 16.6261 28.8566 16.1385C29.391 15.6509 29.6913 14.9896 29.6913 14.3C29.6913 13.6104 29.391 12.9491 28.8566 12.4615C28.3221 11.9739 27.5972 11.7 26.8413 11.7H26.8128ZM22.8 20.8C22.0441 20.8 21.3192 21.0739 20.7847 21.5615C20.2503 22.0491 19.95 22.7104 19.95 23.4C19.95 24.0896 20.2503 24.7509 20.7847 25.2385C21.3192 25.7261 22.0441 26 22.8 26H25.65V33.8H22.8C22.0441 33.8 21.3192 34.0739 20.7847 34.5615C20.2503 35.0491 19.95 35.7104 19.95 36.4C19.95 37.0896 20.2503 37.7509 20.7847 38.2385C21.3192 38.7261 22.0441 39 22.8 39H34.2C34.9559 39 35.6808 38.7261 36.2153 38.2385C36.7497 37.7509 37.05 37.0896 37.05 36.4C37.05 35.7104 36.7497 35.0491 36.2153 34.5615C35.6808 34.0739 34.9559 33.8 34.2 33.8H31.35V23.4C31.35 22.7104 31.0497 22.0491 30.5153 21.5615C29.9808 21.0739 29.2559 20.8 28.5 20.8H22.8Z" fill="#E1E1E1"/>
</svg>
