<svg width="46" height="46" viewBox="0 0 46 46" fill="none" xmlns="http://www.w3.org/2000/svg">
<path d="M23 12.6282V23V33.3718M12.6282 23H23H33.3718M45 23C45 25.8891 44.431 28.7499 43.3253 31.419C42.2197 34.0882 40.5992 36.5135 38.5563 38.5563C36.5135 40.5992 34.0882 42.2197 31.419 43.3253C28.7499 44.431 25.8891 45 23 45C20.1109 45 17.2501 44.431 14.581 43.3253C11.9118 42.2197 9.48654 40.5992 7.44365 38.5563C5.40076 36.5135 3.78025 34.0882 2.67465 31.419C1.56905 28.7499 1 25.8891 1 23C1 17.1652 3.31785 11.5695 7.44365 7.44365C11.5695 3.31785 17.1652 1 23 1C28.8348 1 34.4305 3.31785 38.5563 7.44365C42.6821 11.5695 45 17.1652 45 23Z" fill="#475039"/>
<path d="M23 12.6282V23M23 33.3718V23M12.6282 23H23M33.3718 23H23M45 23C45 25.8891 44.431 28.7499 43.3253 31.419C42.2197 34.0882 40.5992 36.5135 38.5563 38.5563C36.5135 40.5992 34.0882 42.2197 31.419 43.3253C28.7499 44.431 25.8891 45 23 45C20.1109 45 17.2501 44.431 14.581 43.3253C11.9118 42.2197 9.48654 40.5992 7.44365 38.5563C5.40076 36.5135 3.78025 34.0882 2.67465 31.419C1.56905 28.7499 1 25.8891 1 23C1 17.1652 3.31785 11.5695 7.44365 7.44365C11.5695 3.31785 17.1652 1 23 1C28.8348 1 34.4305 3.31785 38.5563 7.44365C42.6821 11.5695 45 17.1652 45 23Z" stroke="#E1E1E1" stroke-width="2" stroke-linecap="round" stroke-linejoin="round"/>
</svg>
