<svg width="44" height="52" viewBox="0 0 44 52" fill="none" xmlns="http://www.w3.org/2000/svg">
<path fill-rule="evenodd" clip-rule="evenodd" d="M22 0C18.1102 0 14.3796 1.36964 11.6291 3.80761C8.87857 6.24558 7.33333 9.55219 7.33333 13C7.33333 16.4478 8.87857 19.7544 11.6291 22.1924C14.3796 24.6304 18.1102 26 22 26C25.8898 26 29.6204 24.6304 32.3709 22.1924C35.1214 19.7544 36.6667 16.4478 36.6667 13C36.6667 9.55219 35.1214 6.24558 32.3709 3.80761C29.6204 1.36964 25.8898 0 22 0ZM14.6667 29.25C10.7768 29.25 7.0463 30.6196 4.29577 33.0576C1.54523 35.4956 0 38.8022 0 42.25V45.5C0 47.2239 0.772617 48.8772 2.14788 50.0962C3.52315 51.3152 5.38841 52 7.33333 52H36.6667C38.6116 52 40.4768 51.3152 41.8521 50.0962C43.2274 48.8772 44 47.2239 44 45.5V42.25C44 38.8022 42.4548 35.4956 39.7042 33.0576C36.9537 30.6196 33.2232 29.25 29.3333 29.25H14.6667Z" fill="#E1E1E1"/>
</svg>
