<svg width="54" height="35" viewBox="0 0 54 35" fill="none" xmlns="http://www.w3.org/2000/svg">
<path fill-rule="evenodd" clip-rule="evenodd" d="M53.2112 8.12982C52.9591 6.40319 52.228 4.76185 51.0857 3.35777C49.67 2.07157 47.7501 1.33932 45.7408 1.3192C38.2866 0.833253 27.0823 0.833252 27.0823 0.833252C27.0823 0.833252 15.8834 0.833253 8.41839 1.3192C6.41002 1.33995 4.49124 2.07216 3.07622 3.35777C1.92626 4.75917 1.19355 6.40292 0.947976 8.13225C0.614264 10.7183 0.434407 13.3186 0.40918 15.9221V19.5667C0.434407 22.1701 0.614264 24.7704 0.947976 27.3565C1.20121 29.0865 1.92859 30.7339 3.06006 32.148C4.68722 33.4503 6.77775 34.1817 8.9518 34.2084C13.2164 34.5753 27.085 34.6944 27.085 34.6944C27.085 34.6944 38.2947 34.6944 45.7489 34.2084C47.7595 34.1883 49.6806 33.4551 51.0965 32.1674C52.2332 30.7601 52.962 29.1189 53.2166 27.3929C53.5503 24.8069 53.7302 22.2066 53.7554 19.6031V15.9196C53.7234 13.3163 53.5418 10.7162 53.2112 8.12982ZM21.7132 24.0545V10.3992L36.2607 17.2487L21.7132 24.0545Z" fill="#363D2B"/>
</svg>
